<?xml version="1.0" encoding="UTF-8" standalone="no"?>
<svg
   width="500"
   height="490"
   viewBox="0 0 500 490"
   version="1.1"
   id="svg2"
   sodipodi:docname="Logo_Without_stars.svg"
   inkscape:version="1.4 (e7c3feb100, 2024-10-09)"
   xml:space="preserve"
   xmlns:inkscape="http://www.inkscape.org/namespaces/inkscape"
   xmlns:sodipodi="http://sodipodi.sourceforge.net/DTD/sodipodi-0.dtd"
   xmlns="http://www.w3.org/2000/svg"
   xmlns:svg="http://www.w3.org/2000/svg"><defs
     id="defs2"><rect
       x="211.07137"
       y="85.559921"
       width="311.12698"
       height="120.91526"
       id="rect2" /></defs><sodipodi:namedview
     id="namedview2"
     pagecolor="#505050"
     bordercolor="#ffffff"
     borderopacity="1"
     inkscape:showpageshadow="0"
     inkscape:pageopacity="0"
     inkscape:pagecheckerboard="1"
     inkscape:deskcolor="#505050"
     inkscape:zoom="1.4142136"
     inkscape:cx="330.21886"
     inkscape:cy="237.58787"
     inkscape:window-width="2560"
     inkscape:window-height="1011"
     inkscape:window-x="0"
     inkscape:window-y="0"
     inkscape:window-maximized="1"
     inkscape:current-layer="g9" /><g
     id="g1"
     transform="translate(-14.708603,-89.301842)"><g
       id="g9"
       transform="translate(30.062499,-19.456125)"><g
         id="g5"
         transform="translate(-30.686137,4)" /><g
         id="g2"
         transform="translate(12.020815,21.92031)"><path
           d="m 106.3125,89.611875 c -1.237,0.477 -2.25,1.23 -2.25,1.673 0,0.442 1.322,4.238 2.938,8.434 l 2.938,7.629995 -44.935,123.768 c -24.714001,68.072 -44.674001,124.02801 -44.356001,124.34701 0.318,0.319 12.818,0.712 27.776,0.874 l 27.198001,0.294 15.905,-39.702 c 8.747,-21.836 16.874,-40.83 18.059,-42.20801 l 2.155,-2.50499 6.059,14.41399 c 3.333,7.92701 11.127,26.935 17.321,42.24 l 11.262,27.827 29.758,-0.327 c 16.367,-0.18 30.056,-0.625 30.419,-0.99 0.364,-0.36399 -6.308,-19.714 -14.825,-43 -8.518,-23.285 -28.834,-78.91899 -45.147,-123.631 l -29.66,-81.29399 2.642,-7.932005 c 1.452,-4.362 2.356,-8.392 2.008,-8.956 -0.348,-0.563 -1.518,-1.024 -2.599,-1.024 -1.237,0 -2.333,1.019 -2.957,2.75 -0.545,1.513 -1.38,3.65 -1.855,4.75 -0.753,1.741 -1.172,1.332 -3.235,-3.149 -2.128,-4.626 -2.598,-5.062 -4.619,-4.283 m 351.155,264.927005 c -0.644,0.644 -36.491,1.08699 -101.45,1.255 l -100.455,0.25999 100.628,0.245 c 88.428,0.215 100.778,0.063 101.872,-1.25499 0.685,-0.825 1.055,-1.5 0.822,-1.5 -0.232,0 -0.87,0.44799 -1.417,0.995"
           stroke="none"
           fill="#132b33"
           fill-rule="evenodd"
           id="path1"
           sodipodi:nodetypes="cscccscccccccccccccccscccccccccsc"
           transform="translate(-30.062499,19.456125)" /><path
           d="m 262.0625,147.38686 c -2.475,0.187 -9.45,1.03 -15.5,1.874 -6.05,0.844 -15.402,2.637 -20.783,3.984 -5.381,1.34701 -13.931,4.04901 -19,6.004 -5.069,1.956 -12.592,5.373 -16.717,7.594 -4.125,2.222 -10.488,6.254 -14.139,8.96 -3.652,2.706 -8.714,7.349 -11.25,10.317 -2.536,2.968 -4.611,5.896 -4.611,6.505 0,0.60901 10.868,30.913 24.15,67.341 13.283,36.427 24.262,66.374 24.399,66.547 0.137,0.174 3.107,-1.152 6.6,-2.946 5.547,-2.85 7.301,-3.257 13.851,-3.219 5.654,0.032 8.666,0.598 12.236,2.3 2.605,1.242 6.524,3.992 8.709,6.112 2.185,2.121 4.904,5.682 6.043,7.915 1.139,2.233 2.494,7.314 3.011,11.291 0.517,3.978 0.953,7.569 0.97,7.98201 0.017,0.413 45.223,0.75 100.458,0.75 h 100.427 l 3.116,-3.75 c 1.713,-2.06201 4.443,-6.45 6.067,-9.75 1.623,-3.30001 3.833,-9.476 4.91,-13.724 1.077,-4.248 2.262,-12.145 2.634,-17.548 0.402,-5.82601 0.195,-14.078 -0.508,-20.27601 -0.652,-5.749 -2.304,-14.95199 -3.671,-20.45199 -1.367,-5.5 -4.403,-14.72501 -6.746,-20.5 -2.343,-5.77501 -6.135,-13.70501 -8.427,-17.62201 -2.293,-3.918 -6.943,-10.893 -10.335,-15.5 -3.391,-4.608 -10.493,-12.685 -15.78,-17.948 -5.288,-5.264 -13.297,-12.301 -17.799,-15.638 -4.502,-3.337 -12.152,-8.334 -17,-11.104 -4.848,-2.77 -13.802,-7.07499 -19.896,-9.568 -6.095,-2.492 -15.899,-5.884 -21.788,-7.537 -5.888,-1.654 -15.751,-3.909 -21.918,-5.013 -6.167,-1.103 -15.873,-2.471 -21.569,-3.038 -5.696,-0.568 -18.296,-0.953 -28,-0.857 -9.704,0.096 -19.669,0.327 -22.144,0.514 m 83.986,45.83 c -1.252,1.511 -1.446,6.295 -1.234,30.387 0.139,15.727 0.518,29.858 0.843,31.404 0.368,1.75 1.523,3.164 3.063,3.75 1.372,0.522 18.067,0.94 37.525,0.94 h 35.052 l -0.718,-7.75 c -0.395,-4.262 -1.738,-10.975 -2.985,-14.917 -1.247,-3.941 -3.979,-10.241 -6.071,-14 -2.093,-3.758 -6.765,-9.796 -10.383,-13.417 -4.514,-4.518 -8.931,-7.742 -14.078,-10.276 -4.125,-2.031 -9.975,-4.37 -13,-5.197 -3.025,-0.828 -10.231,-1.778 -16.014,-2.111 -9.34,-0.539 -10.679,-0.407 -12,1.187"
           stroke="none"
           fill="#8c1434"
           fill-rule="evenodd"
           id="path2"
           transform="translate(-30.062499,19.456125)" /><text
           xml:space="preserve"
           style="font-style:normal;font-variant:normal;font-weight:bold;font-stretch:normal;font-size:70px;line-height:1;font-family:'Roboto Slab';-inkscape-font-specification:'Roboto Slab Bold';text-align:start;writing-mode:lr-tb;direction:ltr;text-anchor:start;white-space:pre;inline-size:562.072;display:inline;fill:#132b33;fill-opacity:1"
           x="-3.8119507"
           y="370"
           id="text5"
           transform="translate(-13.291396,92.000001)"><tspan
             x="-3.8119507"
             y="370"
             id="tspan8"><tspan
               style="font-size:64px"
               id="tspan4">LES PLAGES DE</tspan><tspan
               style="font-weight:600;-inkscape-font-specification:'Roboto Slab Semi-Bold';text-align:center;text-anchor:middle"
               id="tspan5"> </tspan></tspan><tspan
             x="-3.8119507"
             y="448.00001"
             id="tspan10"><tspan
               style="font-weight:600;font-size:78px;-inkscape-font-specification:'Roboto Slab Semi-Bold'"
               id="tspan9">BEG LEGUER</tspan></tspan></text></g></g></g></svg>
